<?xml version="1.0" encoding="iso-8859-1"?>
<!-- Generator: Adobe Illustrator 25.2.0, SVG Export Plug-In . SVG Version: 6.00 Build 0)  -->
<svg version="1.1" id="Layer_1" xmlns="http://www.w3.org/2000/svg" xmlns:xlink="http://www.w3.org/1999/xlink" x="0px" y="0px"
	 width="300px" height="300px" viewBox="0 0 300 300" enable-background="new 0 0 300 300" xml:space="preserve">
<g>
	<path d="M149.287,155.925c-1.338,0.459-2.067,1.115-1.821,2.604c0.686,4.157,1.339,8.319,2.03,12.475
		c0.155,0.933,0.413,1.848,0.623,2.772c3.339-5.842,5.875-11.806,6.668-18.524C154.205,154.845,151.741,155.083,149.287,155.925z"/>
	<path d="M133.302,236.674c0.302,0.773,1.141,1.655,1.906,1.863c1.723,0.469,3.545,0.653,5.339,0.759
		c2.432,0.144,2.443,0.026,2.827-2.377c0.445-2.778,0.958-5.546,1.507-8.693c-0.03-0.026-0.264-0.374-0.578-0.474
		c-2.673-0.857-5.339-1.759-8.065-2.408c-0.479-0.114-1.48,0.763-1.793,1.401c-0.602,1.227-0.839,2.627-1.308,3.926
		C132.404,232.705,132.548,234.743,133.302,236.674z"/>
	<path d="M161.852,189.778c0.216-4.486,0.248-8.981,0.362-13.523c-3.533,4.152-6.802,8.785-12.845,10.71
		c0,4.364,0.034,8.78-0.009,13.194c-0.046,4.72-0.219,9.433-2.139,13.868c-1.438,3.323-1.829,6.73-0.821,10.24
		c0.191,0.666,0.535,1.287,0.664,1.589c1.533,0.077,2.716,0.147,3.899,0.194c3.066,0.121,6.159,0.882,9.174-0.247
		c0.57-0.213,1.215-0.71,1.454-1.242c1.12-2.498,0.822-5.091,0.188-7.65c-1.122-4.529-1.149-9.123-0.855-13.733
		C161.208,198.709,161.636,194.249,161.852,189.778z"/>
	<path d="M179.031,230.932c1.911-1.318,2.475-2.405,2.643-5.142c0.081-1.324,0.276-2.649,0.529-3.952
		c1.151-5.925,2.357-11.84,3.514-17.764c1.042-5.337,2.112-10.63,4.586-15.583c1.392-2.786,2.141-5.893,3.179-8.856
		c-0.187-0.107-0.373-0.215-0.56-0.322c-1.952,1.972-4.036,3.832-5.821,5.946c-2.064,2.443-3.829,5.136-5.791,7.668
		c-1.224,1.581-2.515,3.175-5.059,2.521c-1.258,5.046-4.236,9.197-6.929,13.465c-2.97,4.707-3.258,9.567-1.759,14.767
		c0.834,2.893,3.125,4.207,5.501,5.334C174.848,229.86,176.848,230.251,179.031,230.932z"/>
	<path d="M181.21,149.324c2.871,2.229,2.654,3.619-1.05,6.155c0.472,3.431-0.025,6.794-1.018,10.151
		c-0.303,1.024,0.032,2.325,0.356,3.415c0.218,0.734,1.013,0.905,1.561,0.142c1.195-1.665,3.122-2.944,2.804-5.431
		c-0.06-0.471,0.246-1.07,0.549-1.491c1.021-1.423,2.082-2.821,3.191-4.177c1.839-2.247,3.377-4.704,3.458-7.639
		c0.115-4.162,0.889-8.154,2.058-12.125c0.496-1.686,1.037-3.487,0.172-5.437C187.906,137.582,184.232,143.215,181.21,149.324z"/>
	<path d="M167.16,46.768c1.35,0.287,2.745,0.366,3.675,0.482c1.191,0,1.92,0.02,2.647-0.004c3.1-0.101,3.363-0.37,3.456-3.427
		c0.094-3.087,0.219-6.174,0.288-9.262c0.05-2.229,0.126-4.463,0.013-6.687c-0.079-1.564-1.822-3.56-2.955-3.537
		c-1.378,0.027-2.513,0.71-2.94,2.033c-0.829,2.568-1.544,5.175-2.212,7.789c-0.251,0.984-0.032,2.115-0.392,3.038
		c-0.872,2.238-1.958,4.393-2.959,6.58C164.937,45.617,165.229,46.357,167.16,46.768z"/>
	<path d="M188.955,159.438c-0.977,1.153-1.952,2.324-2.783,3.583c-1.311,1.987-0.69,3.278,1.672,3.32
		c2.884,0.052,5.602,0.684,8.273,1.702c1.765,0.673,3.022,0.19,3.6-1.574c0.553-1.69,0.79-3.483,1.032-4.613
		c-0.738-3.947,1.069-5.984,3.271-8.033c2.34-2.177,4.624-4.518,6.44-7.129c1.94-2.79,1.511-7.573-3.402-8.559
		c-3.413-0.685-6.748-0.083-10.113,0.129c-1.421,0.09-2.295,0.932-2.526,2.4c-0.43,2.732-1.128,5.445-1.288,8.191
		C192.898,152.898,191.548,156.376,188.955,159.438z"/>
	<path d="M177.669,148.619c1.018,0.148,1.631-0.131,2.132-0.926c0.387-0.614,0.829-1.2,1.15-1.847
		c2.423-4.88,5.701-9.113,9.536-12.966c0.912-0.917,1.619-2.138,2.117-3.345c0.774-1.877-0.232-3.475-2.223-3.901
		c-2.254-0.481-4.496-0.987-6.319-2.545c-2.645-2.26-5.213-1.785-6.731,1.398c-1.768,3.707-3.385,7.487-5.049,11.244
		c-1.636,3.694-2.957,7.553-5.787,11.26c2.332,0.507,4.65,1.108,7.003,1.485C174.86,148.696,176.3,148.42,177.669,148.619z"/>
	<path d="M171.122,156.79c-3.608-0.283-7.222-0.524-10.813-0.952c-1.597-0.19-2.073-0.038-2.233,1.56
		c-0.084,0.841-0.045,1.709-0.239,2.522c-1.383,5.795-3.551,11.254-6.758,16.315c-1.18,1.861-2.04,3.948-2.838,6.012
		c-0.22,0.568,0.088,1.71,0.554,2.068c0.45,0.346,1.575,0.279,2.126-0.059c1.688-1.036,3.488-2.065,4.806-3.5
		c4.961-5.401,9.79-10.924,14.569-16.488c1.21-1.408,2.122-3.093,3.03-4.73c0.434-0.784,0.537-1.751,0.819-2.739
		C172.918,156.8,172.015,156.86,171.122,156.79z"/>
	<path d="M176.337,192.026c-0.008,0.508,0.302,1.281,0.688,1.461c0.382,0.178,1.133-0.115,1.556-0.427
		c0.563-0.415,1.042-0.999,1.426-1.595c3.537-5.485,7.708-10.375,12.938-14.349c2.19-1.664,3.468-3.962,3.654-6.917
		c-0.39-0.162-0.604-0.294-0.836-0.341c-3.12-0.631-6.276-1.125-9.35-1.93c-1.404-0.368-2.082,0.031-2.829,1.072
		c-0.659,0.918-1.535,1.678-2.284,2.536c-0.48,0.55-1.149,1.09-1.309,1.739c-1.162,4.734-2.264,9.485-3.278,14.253
		C176.404,188.99,176.361,190.523,176.337,192.026z"/>
	<path d="M165.99,228.81c-1.281-0.233-2.514-0.892-3.79-0.959c-1.679-0.088-3.38,0.344-5.069,0.325
		c-2.362-0.026-4.72-0.3-7.083-0.383c-0.684-0.024-1.712,0.003-2.005,0.415c-0.837,1.179-1.633,2.503-1.984,3.887
		c-0.993,3.911-0.985,7.945-3.485,11.603c-2.961,4.333-1.083,9.478,3.585,11.947c1.078,0.57,2.191,0.829,3.43,0.259
		c0.979-0.45,2.057-0.692,3.1-0.995c2.113-0.613,4.154-0.677,6.072,0.678c1.662,1.174,3.381,2.267,4.904,3.281
		c1.056-1.286,2.105-2.38,2.936-3.619c1.243-1.853,2.364-3.791,3.462-5.735c0.202-0.357,0.108-0.919,0.053-1.375
		c-0.272-2.281-0.639-4.551-0.854-6.837c-0.367-3.894-0.103-7.723,1.981-11.846C169.15,229.209,167.554,229.094,165.99,228.81z"/>
	<path d="M130.763,217.96c0.026,0.716,0.501,1.53,1,2.096c2.121,2.404,4.779,3.871,7.997,4.272c0.408,0.051,0.786,0.31,1.194,0.412
		c1.211,0.302,2.429,0.574,3.741,0.88c-0.761-3.945-1.156-7.585,0.402-11.246c0.467-1.097,0.336-2.616,0.045-3.837
		c-1.175-4.926-2.739-9.768-3.74-14.725c-0.955-4.727-1.493-9.547-2.02-14.348c-0.429-3.906-0.597-7.842-0.83-11.768
		c-0.147-2.481-0.145-4.972-0.31-7.451c-0.173-2.599-1.552-3.526-3.897-2.446c-2.404,1.106-4.75,2.384-6.985,3.803
		c-2.731,1.733-3.494,4.265-2.614,7.415c0.891,3.191,1.777,6.405,2.317,9.667c0.877,5.303,1.485,10.65,2.179,15.983
		c0.506,3.892,1.114,7.78,1.402,11.69C130.878,211.542,130.647,214.761,130.763,217.96z"/>
	<path d="M187.665,240.772c-1.44-2.393-3.572-3.562-5.886-4.743c-1.331-0.679-2.468-1.739-3.687-2.636
		c-0.781-0.575-1.517-1.22-2.335-1.736c-2.184-1.378-3.561-0.767-4.241,1.669c-1.132,4.054-0.385,8.049,0.203,12.059
		c0.184,1.253,0.241,2.545,0.594,3.75c1.054,3.598,4.755,5.107,7.419,2.867c2.449-2.059,5.265-2.56,8.235-2.859
		c0.481-0.048,0.967-0.083,1.438-0.184c2.692-0.573,4.558-2.991,4.545-6.025C191.383,243.274,188.972,242.945,187.665,240.772z"/>
	<path d="M125.177,243.696c2.237-0.542,4.251-1.467,5.632-3.341c0.492-0.667,1.005-1.798,0.767-2.446
		c-1.8-4.908,0.154-9.234,1.913-13.849c-1.143-0.929-2.273-2.051-3.592-2.868c-1.71-1.059-3.759-0.078-4.192,1.867
		c-0.197,0.885-0.289,1.794-0.415,2.694c-0.473,3.39-2.953,5.101-6.325,4.393c-2.012-0.423-4.033-0.806-6.054-1.18
		c-1.362-0.252-2.604-0.262-3.54,1.11c-0.971,1.423-0.346,2.585,0.442,3.661c2.184,2.984,4.306,5.973,5.768,9.42
		c0.594,1.401,2.074,2.006,3.607,2.507c1.32,0.431,1.876-0.458,2.764-0.819C123.009,244.415,124.073,243.963,125.177,243.696z"/>
	<path d="M159.486,258.226c-0.162-0.066-0.274-0.247-0.433-0.325c-1.492-0.724-2.814-2.03-4.688-1.506
		c-1.507,0.421-3.047,0.797-4.462,1.437c-0.557,0.252-0.977,1.124-1.156,1.795c-0.139,0.52,0.101,1.204,0.331,1.748
		c1.519,3.586,3.043,7.171,4.665,10.711c0.268,0.586,0.952,1.126,1.571,1.382c3.605,1.495,7.133,1.346,9.74-2.114
		c0.509-0.676,1.041-1.334,1.617-2.071c-0.749-1.481-1.816-2.766-2.028-4.179C164.145,261.785,162.589,259.487,159.486,258.226z"/>
	<path d="M188.089,251.146c-2.174-0.049-4.351,0.229-6.197,1.608c-0.964,0.72-1.939,1.425-3.065,2.252
		c1.069,2.815,3.45,4.415,5.58,6.095c1.725,1.36,4.154,1.037,5.209-0.095c2.014-2.159,2.41-6.206,0.673-8.575
		C189.818,251.787,188.845,251.163,188.089,251.146z"/>
	<path d="M147.045,257.894c-3.197-1.582-6.261-3.206-7.293-6.779c-0.991-3.432,0.035-6.662,1.713-9.664
		c-2.82-0.41-5.546-0.807-8.504-1.237c-1.937,3.244-3.454,4.347-7.517,5.359c-4.246,1.058-5.146,3.633-2.501,7.161
		c0.146,0.194,0.298,0.384,0.453,0.57c1.397,1.666,3.02,3.195,4.135,5.032c1.3,2.14,2.353,4.483,3.158,6.858
		c1.083,3.196,3.31,5.773,5.855,5.678c2.738-0.102,4.981,0.691,6.897,2.585c1.879,1.858,3.243,1.527,5.695-0.064
		c1.963-1.274,1.931-2.41,0.982-4.971C148.838,264.964,146.159,261.907,147.045,257.894z"/>
	<path d="M177.342,255.831c-0.126-0.377-0.731-0.715-1.18-0.844c-2.053-0.592-3.777-1.609-4.898-3.52
		c-1.72,2.443-3.39,4.709-4.927,7.062c-0.474,0.726-0.89,1.719-0.808,2.537c0.304,3.02,1.459,5.923,3.543,7.981
		c1.253,1.237,3.619,1.355,5.494,1.946c0.338,0.107,0.728,0.037,1.082,0.109c4.382,0.887,5.938,0.028,7.44-4.135
		c0.226-0.626,0.464-1.252,0.622-1.896c0.254-1.036,0.113-1.778-0.833-2.656C180.784,260.47,178.32,258.767,177.342,255.831z"/>
	<path d="M210.242,150.676c-2.322,2.173-4.626,4.139-6.672,6.344c-0.744,0.801-1.189,2.163-1.221,3.285
		c-0.086,2.994,0.036,6.003,0.255,8.993c0.116,1.587,0.084,3.4,1.529,4.492c1.731,1.308,3.53,2.65,5.973,1.822
		c0.363-0.123,0.833,0.017,1.242,0.093c2.585,0.475,4.377-1.069,4.211-3.679c-0.08-1.265-0.336-2.525-0.333-3.787
		c0.007-3.289-0.867-6.277-2.455-9.163c-0.912-1.658-1.404-3.561-1.978-5.387C210.493,152.73,210.421,151.698,210.242,150.676z"/>
	<path d="M212.959,177.699c-2.09,0.074-4.236,0.058-6.271-0.352c-1.287-0.259-2.198-0.035-3.203,0.583
		c-1.911,1.173-2.535,3.101-2.701,5.097c-0.277,3.325-0.197,6.678-0.438,10.007c-0.366,5.066-0.698,10.176-2.56,14.965
		c-2.85,7.329-5.883,14.57-10.689,20.93c-2.214,2.931-2.02,5.114,0.181,8.103c0.359,0.487,0.77,0.961,1.01,1.505
		c0.859,1.951,1.755,2.591,3.798,2.584c3.745-0.014,5.54-1.821,5.641-5.571c0.052-1.934,0.051-3.897,0.4-5.787
		c0.394-2.125,1.168-4.178,1.755-6.269c1.076-3.832,1.915-7.748,3.264-11.48c1.476-4.083,3.437-7.99,5.15-11.989
		c2.021-4.715,4.052-9.426,5.976-14.181c0.698-1.726,1.216-3.548,1.599-5.372C216.223,178.79,214.715,177.637,212.959,177.699z"/>
	<path d="M118.331,151.695c0.162,0.094,0.324,0.188,0.486,0.281c4.173-3.059,8.346-6.118,12.13-8.892
		c-0.304-2.533-0.569-4.768-0.841-7.003c-0.312-2.566-0.076-5.208-1.384-7.624c-1.699-3.139-3.247-6.36-4.901-9.525
		c-3.69-7.059-6.965-14.186-7.312-22.408c-0.107-2.516-1.583-5.035-2.701-7.427c-0.759-1.625-1.597-1.782-3.083-0.748
		c-2.284,1.589-4.504,3.29-6.6,5.117c-0.634,0.553-0.933,1.651-1.097,2.551c-0.417,2.295,0.412,4.386,1.222,6.501
		c1.597,4.169,3.226,8.339,4.538,12.602c1.461,4.747,2.039,9.666,2.283,14.642c0.225,4.602,1.788,8.766,5.115,12.105
		c1.551,1.557,2.263,3.376,2.157,5.569C118.275,148.853,118.331,150.275,118.331,151.695z"/>
	<path d="M144.127,148.039c0.379,0.454,0.698,1.022,0.85,1.589c0.462,1.715,0.829,3.455,1.263,5.317
		c0.651-0.194,1.363-0.331,2.011-0.614c2.161-0.944,4.428-1.319,6.744-1.073c2.273,0.242,4.518,0.735,6.784,1.059
		c4.507,0.645,9.034,1.079,13.567,0.359c2.179-0.346,4.478-0.597,5.991-2.807c-1.517-1.35-3.21-1.495-4.918-1.402
		c-4.226,0.232-8.164-0.726-11.891-2.673c-0.964-0.503-1.941-0.984-2.911-1.475c-5.755-2.914-11.983-4.185-18.434-5.014
		c0,0-0.236,0.288-0.209,0.55C143.186,143.944,142.577,146.183,144.127,148.039z"/>
	<path d="M112.875,227.143c2.448,0.245,4.868,0.776,7.465,1.217c1.871,0.011,2.85-0.778,3.188-2.798
		c0.129-0.774-0.062-1.65,0.225-2.341c0.852-2.047-0.316-3.316-1.68-4.333c-1.543-1.149-3.357-1.927-4.948-3.02
		c-2.634-1.809-5.722-3.308-7.659-5.711c-4.15-5.15-5.047-11.484-4.811-17.969c0.113-3.124,0.176-6.255,0.449-9.367
		c0.268-3.046-1.48-4.743-3.764-6.075c-3.132-1.827-5.546-4.23-7.054-7.577c-0.428-0.95-1.228-1.818-2.051-2.484
		c-1.39-1.125-2.458-0.743-2.67,1.019c-0.248,2.063-1.343,3.415-2.915,4.577c-3.882,2.867-4.404,6.57-1.454,10.385
		c4.427,5.727,7.672,11.989,9.043,19.168c1.108,5.803,2.5,11.556,3.47,17.38c0.652,3.918,2.834,6.482,6.115,8.26
		c1.692,0.917,3.463,1.455,5.45,0.21C110.226,227.088,111.687,227.024,112.875,227.143z"/>
	<path d="M103.24,61.838c1.022-0.101,2.051-0.142,3.179-0.217c0.844-2.535,0.816-3.055-0.37-6.206
		c-1.506-4.001-3.342-7.88-3.749-12.245c-0.108-1.16-0.846-2.407-1.633-3.324c-1.112-1.296-2.363-0.985-2.824,0.648
		c-0.352,1.247-0.576,2.622-0.438,3.895c0.278,2.566,1.014,5.086,1.23,7.653c0.155,1.841-0.374,3.73-0.338,5.592
		C98.355,60.718,100.147,62.145,103.24,61.838z"/>
	<path d="M152.492,140.41c3.183,1.276,6.336,2.631,9.543,3.844c0.427,0.161,1.378-0.143,1.592-0.515
		c0.562-0.979,1.063-2.087,1.207-3.193c0.375-2.876,0.868-5.794,0.738-8.669c-0.434-9.603,1.055-18.974,3.176-28.256
		c0.87-3.809,2.287-7.501,3.579-11.203c0.855-2.449,1.563-4.876,0.493-7.392c-0.553-1.3-1.487-2.327-3.038-2.504
		c-1.661-0.189-3.35-0.237-4.978-0.578c-3.309-0.693-5.788,0.769-6.306,4.014c-0.266,1.667-0.42,3.372-0.407,5.059
		c0.051,6.878-0.652,13.663-2.564,20.274c-1.306,4.516-2.983,8.926-4.245,13.453c-0.968,3.474-1.546,7.057-2.297,10.592
		c0.134,0.007,0.268,0.014,0.402,0.02C148.822,138.057,150.214,139.496,152.492,140.41z"/>
	<path d="M104.15,176.496c0.33,0.211,0.967,0.268,1.3,0.092c1.585-0.837,3.218-1.641,4.645-2.71
		c4.898-3.669,9.675-7.5,14.577-11.163c4.625-3.455,9.901-5.527,15.553-6.51c3.868-0.673,4.711-1.152,3.149-5.54
		c-0.238-0.668-0.677-1.276-1.085-1.869c-0.813-1.183-1.314-2.32-0.88-3.88c0.537-1.93-0.949-3.424-2.952-3.19
		c-0.59,0.069-1.234,0.201-1.725,0.508c-3.582,2.24-7.31,4.299-10.654,6.857c-6.67,5.102-13.946,8.582-22.29,9.869
		c-1.788,0.276-3.616,1.036-5.15,2.008c-1.693,1.073-2.892,2.748-3.003,5.753c0.393,0.931,0.887,2.626,1.771,4.083
		C98.992,173.416,101.648,174.9,104.15,176.496z"/>
	<path d="M166.663,80.57c3.131,0.83,5.008-0.389,5.462-3.498c0.183-1.254,0.351-2.534,0.308-3.794
		c-0.205-5.947,1.008-11.635,2.799-17.264c0.558-1.755,0.634-3.672,0.858-5.523c0.167-1.379-0.504-1.714-1.864-1.629
		c-2.156,0.134-4.332-0.082-6.495-0.014c-0.589,0.018-1.361,0.371-1.71,0.828c-1.434,1.88-2.07,4.038-2.045,6.437
		c0.045,4.391-0.548,8.636-2.619,12.638c-0.892,1.723-1.228,3.733-1.816,5.612c0.133,0.026,0.266,0.051,0.399,0.077
		c-0.393,2.39,0.778,3.852,2.822,4.721C164.032,79.703,165.331,80.217,166.663,80.57z"/>
	<path d="M107.048,88.491c0.977-0.946,2.252-1.688,3.524-2.193c1.089-0.433,1.212-1.106,1.031-1.969
		c-0.159-0.757-0.593-1.454-0.783-2.208c-0.613-2.436-1.336-4.862-1.705-7.338c-0.427-2.866-0.393-5.799-0.806-8.668
		c-0.29-2.017-1.467-2.677-3.506-2.462c-3.585,0.377-4.421,1.298-4.346,4.853c0.012,0.599,0.128,1.198,0.228,1.792
		c0.534,3.164,1.083,6.332,0.466,9.544c-0.329,1.712-0.764,3.403-1.103,4.887c0.035,2.107,1.129,3.263,2.684,3.995
		C104.165,89.399,105.573,89.92,107.048,88.491z"/>
</g>
<g>
</g>
<g>
</g>
<g>
</g>
<g>
</g>
<g>
</g>
<g>
</g>
</svg>
